<svg id="Layer_1" data-name="Layer 1" xmlns="http://www.w3.org/2000/svg" viewBox="0 0 936.28711 545.55469">
  <title>PClogo</title>
  <text transform="translate(0.00012 444.63145) scale(0.99159 1)" font-size="504.12363" font-family="AgencyFB-Reg, Agency FB">C</text>
  <text transform="translate(166.87122 299.04405) scale(0.94196 1)" font-size="174.68837" font-family="TempusSansITC, Tempus Sans ITC">&amp;</text>
  <text transform="translate(197.5636 444.63145) scale(1.42508 1)" font-size="504.12363" font-family="AgencyFB-Reg, Agency FB">T</text>
  <text x="-778.98535" y="-259.50293"/>  <g>
    <path d="M1237.31934,496.93359h9.81543v61.61329h-9.81543Zm7.15625,32.03614h21.13086a14.59789,14.59789,0,0,0,5.17968-.82715,6.90409,6.90409,0,0,0,3.30664-2.415,6.47,6.47,0,0,0,1.124-3.835V509.90039a6.81743,6.81743,0,0,0-1.124-3.96191,6.9341,6.9341,0,0,0-3.27246-2.47852,14.21229,14.21229,0,0,0-5.21386-.84766h-21.13086v-5.67871h20.65332a33.348,33.348,0,0,1,10.73535,1.52637,14.55806,14.55806,0,0,1,6.8164,4.42774,10.785,10.785,0,0,1,2.35157,7.01269v12.07715a10.40221,10.40221,0,0,1-2.35157,6.86426,14.52,14.52,0,0,1-6.8164,4.32226,34.23248,34.23248,0,0,1-10.73535,1.4834h-20.65332Z" transform="translate(-778.98535 -259.50293)" fill="#7a1c71"/>
    <path d="M1307.59473,557.31836a16.866,16.866,0,0,1-7.90723-5.40332,13.50117,13.50117,0,0,1-2.72656-8.49609V512.10449a13.57249,13.57249,0,0,1,2.72656-8.53906,16.87587,16.87587,0,0,1,7.873-5.40234,42.54787,42.54787,0,0,1,24.91308,0,16.65915,16.65915,0,0,1,7.87305,5.40234,13.63,13.63,0,0,1,2.69238,8.49609v2.2461h-9.81543v-2.2461a9.11246,9.11246,0,0,0-1.53418-5.33886,9.54658,9.54658,0,0,0-4.498-3.36914,19.71281,19.71281,0,0,0-7.19141-1.165,19.48772,19.48772,0,0,0-7.123,1.165,9.70259,9.70259,0,0,0-4.5332,3.39062,9.05858,9.05858,0,0,0-1.56738,5.36035V543.419a8.98966,8.98966,0,0,0,1.56738,5.31835,9.69457,9.69457,0,0,0,4.5332,3.38965,19.46708,19.46708,0,0,0,7.123,1.165,19.69207,19.69207,0,0,0,7.19141-1.165,9.53872,9.53872,0,0,0,4.498-3.36816,9.11346,9.11346,0,0,0,1.53418-5.33984v-2.2461h9.81543v2.2461a13.62605,13.62605,0,0,1-2.69238,8.49609,16.65374,16.65374,0,0,1-7.87305,5.40332,42.43353,42.43353,0,0,1-24.8789,0Z" transform="translate(-778.98535 -259.50293)" fill="#7a1c71"/>
    <path d="M1399.75,553.84375a3.89623,3.89623,0,0,1-2.11328,3.38965,10.19245,10.19245,0,0,1-5.45313,1.31348h-35.17187V492.23047h34.89941a10.20136,10.20136,0,0,1,5.45313,1.31348,3.8982,3.8982,0,0,1,2.1123,3.38964v19.70508q0,2.62794-3.8164,4.40625-3.75,1.39893-7.498,2.79688l8.043,3.2207q3.54345,1.35645,3.54492,4.2373Zm-9.81543-36.44238v-19.959h-23.44824v23.94141H1380.46Zm.27246,35.93359v-22.9248l-9.61133-3.89844h-14.10937V553.335Z" transform="translate(-778.98535 -259.50293)"/>
    <path d="M1425.03809,546.80957a5.48132,5.48132,0,0,0,2.93066,4.93652q2.9297,1.75782,8.31543,1.75782,5.58838,0,8.35059-1.71582a5.66612,5.66612,0,0,0,2.76074-5.14844l.9541,5.7207a12.87537,12.87537,0,0,1-6.03223,5.12695,24.51321,24.51321,0,0,1-9.71386,1.69532q-8.24707,0-12.78028-3.24219a10.57049,10.57049,0,0,1-4.53222-9.13086V514.56152h9.74707Zm22.35742-32.24805h9.74707v43.98536h-9.74707Z" transform="translate(-778.98535 -259.50293)"/>
    <path d="M1473.57031,499.34961h9.81446v6.10156h-9.81446Zm0,15.21191h9.81446v43.98536h-9.81446Z" transform="translate(-778.98535 -259.50293)"/>
    <path d="M1509.627,546.97852a5.16444,5.16444,0,0,0,2.01075,4.34375,9.15857,9.15857,0,0,0,5.6914,1.54687h4.499v5.67774H1516.375q-7.90869,0-12.23535-3.05079a9.91081,9.91081,0,0,1-4.32813-8.60254v-49.96h9.81543Z" transform="translate(-778.98535 -259.50293)"/>
    <path d="M1538.80078,557.7627a12.75268,12.75268,0,0,1-6.03223-4.53418,12.17711,12.17711,0,0,1-2.0791-7.13965V527.48633a12.23634,12.23634,0,0,1,8.11133-12.07715,25.29171,25.29171,0,0,1,9.543-1.61035,22.08468,22.08468,0,0,1,9.50781,2.03418,17.74085,17.74085,0,0,1,6.98731,5.7207l-1.43164,6.01758a7.70769,7.70769,0,0,0-1.3291-4.55566,8.25251,8.25251,0,0,0-3.91895-2.88184,17.31867,17.31867,0,0,0-6.20313-.99512q-5.45361,0-8.45214,2.22461a7.32973,7.32973,0,0,0-2.999,6.25v18.47559a6.66356,6.66356,0,0,0,2.999,5.80566q2.99853,2.07569,8.45214,2.07617a17.649,17.649,0,0,0,6.20313-.97461,8.23811,8.23811,0,0,0,3.91895-2.81836,7.36779,7.36779,0,0,0,1.3291-4.42773l.9541,5.88965a13.28077,13.28077,0,0,1-6.20215,5.65723,22.596,22.596,0,0,1-9.81543,2.01269A26.21614,26.21614,0,0,1,1538.80078,557.7627Zm24.60645-60.82911h9.81543v61.61329h-9.81543Z" transform="translate(-778.98535 -259.50293)"/>
    <path d="M1589.65039,499.34961h9.81543v6.10156h-9.81543Zm0,15.21191h9.81543v43.98536h-9.81543Z" transform="translate(-778.98535 -259.50293)"/>
    <path d="M1615.89258,514.56152h9.81543v43.98536h-9.81543Zm33.39941,12.92481a6.78747,6.78747,0,0,0-2.93066-6.01758q-2.93262-1.99072-8.86133-1.99121-5.92968,0-8.86133,2.20312-2.93115,2.2046-2.93066,6.65332l-1.43164-6.35644a15.435,15.435,0,0,1,6.67968-6.14453,23.2475,23.2475,0,0,1,10.15625-2.03418q9.06445,0,13.53028,3.41113,4.46337,3.41163,4.46484,10.27637v31.06055H1649.292Z" transform="translate(-778.98535 -259.50293)"/>
    <path d="M1680.85059,557.7627a12.75259,12.75259,0,0,1-6.03223-4.53418,12.177,12.177,0,0,1-2.0791-7.13965V527.48633a12.23634,12.23634,0,0,1,8.11133-12.07715,25.29162,25.29162,0,0,1,9.543-1.61035,22.08472,22.08472,0,0,1,9.50782,2.03418,17.74082,17.74082,0,0,1,6.9873,5.7207l-1.43164,6.01758a7.70769,7.70769,0,0,0-1.3291-4.55566,8.25246,8.25246,0,0,0-3.91895-2.88184,17.31861,17.31861,0,0,0-6.20312-.99512q-5.45361,0-8.45215,2.22461a7.32972,7.32972,0,0,0-2.999,6.25v18.47559a6.66355,6.66355,0,0,0,2.999,5.80566q2.99853,2.07569,8.45215,2.07617a17.64893,17.64893,0,0,0,6.20312-.97461,8.23806,8.23806,0,0,0,3.91895-2.81836,7.36779,7.36779,0,0,0,1.3291-4.42773l.9541,5.88965a13.28077,13.28077,0,0,1-6.20215,5.65723,22.596,22.596,0,0,1-9.81543,2.01269A26.216,26.216,0,0,1,1680.85059,557.7627Zm2.999,18.666s-1.7959-1.11621-5.38477-3.34766a10.50565,10.50565,0,0,1-5.38476-9.40722h9.81543a5.84644,5.84644,0,0,0,2.96484,5.21289q2.96484,1.86329,8.34961,1.86426,5.38476,0,8.31641-1.75879a5.51651,5.51651,0,0,0,2.93066-4.97852V514.56152h9.81543v49.45215a9.63587,9.63587,0,0,1-2.52246,6.71582,15.91774,15.91774,0,0,1-7.36133,4.23731,40.65335,40.65335,0,0,1-11.65527,1.46191Z" transform="translate(-778.98535 -259.50293)"/>
  </g>
  <path d="M1220.396,306.142V724.57382c0,3.86072,6,3.86711,6,0V306.142c0-3.86072-6-3.86711-6,0Z" transform="translate(-778.98535 -259.50293)"/>
</svg>
